<?xml version="1.0" encoding="utf-8"?>
<!-- Generator: Adobe Illustrator 26.0.2, SVG Export Plug-In . SVG Version: 6.00 Build 0)  -->
<svg version="1.1" id="レイヤー_1" xmlns="http://www.w3.org/2000/svg" xmlns:xlink="http://www.w3.org/1999/xlink" x="0px"
	 y="0px" viewBox="0 0 431.7 56" style="enable-background:new 0 0 431.7 56;" xml:space="preserve">
<style type="text/css">
	.st0{fill:#595757;}
</style>
<g>
	<path class="st0" d="M54.9,25.5c0-1.9,1.2-3,3.6-3.3c-0.2-1.6-1-3.1-2.4-4c-1.6-1-3.4-1.5-5.2-1.4c-3.1-0.1-6.1,1.4-7.9,4
		c-2,2.7-3,6.2-3,10.5c0,4.5,0.9,8.1,2.8,10.6c1.8,2.5,4.7,4,7.8,3.8c2,0,3.9-0.6,5.5-1.8c1.6-1.3,2.7-3,3.2-5
		c0.5-1.7,0.8-2.6,0.8-2.9c0.4-0.9,1.3-1.5,2.3-1.4c0.7,0,1.5,0.3,2,0.8c0.5,0.5,0.8,1.3,0.8,2c-0.1,1.5-0.5,3-1.1,4.3
		c-0.7,1.5-1.6,2.9-2.7,4.2c-2.8,3-6.8,4.7-10.9,4.5c-4.5,0.2-8.8-1.7-11.7-5.2c-3-3.5-4.5-8-4.5-13.6c0-6,1.5-10.7,4.6-14.3
		c3-3.6,7.5-5.5,12.2-5.4c3.4-0.1,6.8,1,9.5,3.1c2.4,1.9,3.8,4.9,3.8,8c0.1,1.6-0.5,3.2-1.5,4.4c-0.9,1.1-2.3,1.8-3.8,1.7
		c-1.1,0-2.2-0.3-3-1.1C55.3,27.5,54.9,26.5,54.9,25.5z"/>
	<path class="st0" d="M109.8,15.3v2c3.9-5.6,11.6-6.9,17.2-3c0.3,0.2,0.5,0.4,0.8,0.6c2.1,1.9,3.2,4.5,3.1,7.3
		c0.1,1.8-0.4,3.6-1.5,5.1c-1,1.3-2.5,2-4.1,2c-1,0-2-0.3-2.8-1c-0.7-0.6-1.1-1.5-1.1-2.4c0-0.8,0.3-1.5,0.9-2.1
		c0.5-0.6,1.2-0.9,2-0.9c0.3,0,0.6,0.1,0.9,0.2c0.3-0.5,0.4-1,0.4-1.6c0-1.4-0.7-2.7-1.8-3.5c-1.3-1-2.9-1.5-4.5-1.4
		c-3.7,0-6.2,1.7-7.4,5c-0.9,3-1.3,6.2-1.1,9.4v4.8c0,3.2,0,5,0.1,5.4c0.2,2.7,1,4.1,2.2,4.1c0.6,0,1.3-0.1,1.9-0.2
		c0.4-0.1,0.9-0.2,1.4-0.2c1.1-0.2,2.1,0.6,2.3,1.7c0,0.2,0,0.4,0,0.6c0,1.7-1,2.5-2.9,2.5h-0.3c-0.7,0-1.8-0.1-3.2-0.2
		c-1.1-0.1-2.1-0.2-3.2-0.3c-1.9,0-3.4,0-4.5,0.2l-4,0.4c-1.9,0-2.9-0.8-2.9-2.5c0-1.5,0.9-2.2,2.7-2.2c0.4,0,0.7,0,1.1,0.1l1.1,0.2
		c0.3,0.1,0.7,0.1,1,0.2c1.2,0,1.9-1.1,1.9-3.3v-3.7l-0.2-16.3c-0.1-2.8-0.9-4.2-2.1-4.2c-0.5,0-1.1,0.1-1.6,0.2
		c-0.5,0.1-1,0.2-1.6,0.2c-1.1,0.2-2.2-0.6-2.3-1.7c0-0.2,0-0.4,0-0.6c0-1.7,1-2.5,3.1-2.5c0.7,0,1.4,0.1,2.1,0.2
		c0.7,0.1,1.4,0.2,2.1,0.2c0.6,0,1.2-0.1,1.9-0.2c0.4-0.1,0.9-0.2,1.4-0.2C109.2,13.2,109.8,13.9,109.8,15.3z"/>
	<path class="st0" d="M194.9,28.1c0.1,1.1,0,2.3-0.4,3.3c-0.2,0.4-0.9,0.6-2.1,0.6h-22.7c-0.4,0-0.8,0-1.2,0.2
		c-0.2,0.2-0.3,0.5-0.2,0.8c-0.1,3.3,1,6.5,3.2,9c2,2.3,4.9,3.7,8,3.6c2,0,4-0.6,5.7-1.7c1.6-1,2.8-2.6,3.4-4.4l0.6-2.1
		c0.2-1.1,1.2-1.8,2.4-1.7c1.8,0,2.6,0.9,2.6,2.7c0,3.1-1.6,5.9-4.7,8.3c-3,2.4-6.8,3.7-10.7,3.6c-5,0-9-1.7-11.9-5.1
		s-4.4-7.9-4.4-13.7c0-5.8,1.6-10.6,4.7-14.2c3-3.6,7.6-5.6,12.3-5.5c4.2-0.1,8.2,1.5,11.1,4.5C193.5,19.6,195.1,23.8,194.9,28.1z
		 M169,26.2c0,0.7,0.5,1,1.6,1h17c1,0,1.5-0.3,1.5-1c0-2.5-1-4.9-2.9-6.6c-1.8-1.8-4.2-2.8-6.7-2.8c-2.7,0-5.3,1.1-7.3,2.9
		C170.3,21.3,169.1,23.7,169,26.2L169,26.2z"/>
	<path class="st0" d="M259.4,50.2c-3.9,0-6.3-1.7-7.2-5.1c-2.4,3.6-6.2,5.4-11.4,5.4c-3.9,0-6.9-1-9.2-2.9c-2.3-1.9-3.6-4.7-3.5-7.7
		c-0.2-3.7,1.8-7.1,5-8.8c1-0.6,2.1-1.1,3.3-1.4c0.9-0.2,2.8-0.5,5.6-0.8c4-0.4,6.6-1,7.8-1.8c1.2-0.8,1.8-2.2,1.8-4.2
		c0.1-1.8-0.6-3.5-2-4.7c-1.6-1.2-3.6-1.8-5.7-1.7c-2.1,0-4.2,0.6-6,1.8c-0.7,0.5-1.1,1-1.1,1.5c0,0.2,0.2,0.4,0.6,0.7
		c0.7,0.6,1.1,1.5,1,2.4c0,0.9-0.3,1.8-1,2.4c-0.7,0.6-1.6,1-2.6,0.9c-1.2,0-2.3-0.4-3.1-1.3c-0.8-0.8-1.3-2-1.2-3.2
		c0-2.7,1.3-5,4-6.9c2.8-2,6.2-3,9.6-2.9c8.7,0,13,4.2,13,12.6v14.5c0,1.4,0,2.7,0.1,4.1c0.3,1.7,1.1,2.5,2.4,2.5
		c1.7,0,2.5-1.5,2.5-4.6v-3.5c0-1.5,0.7-2.3,2.2-2.3s2.3,1.2,2.3,3.5v4.5C266.6,47.9,264.1,50.2,259.4,50.2z M251.5,35.8v-5.1
		c-0.9,0.9-2.1,1.6-3.3,2c-2,0.5-4.1,0.9-6.2,1c-5.4,0.5-8.1,2.5-8.1,6c-0.1,1.7,0.7,3.3,2,4.3c1.5,1.1,3.4,1.7,5.3,1.6
		c2.8,0.2,5.5-0.8,7.5-2.6C250.6,41.1,251.5,38.5,251.5,35.8L251.5,35.8z"/>
	<path class="st0" d="M308.2,15.3v2c3.9-5.6,11.6-6.9,17.2-3c0.3,0.2,0.5,0.4,0.8,0.6c2.1,1.9,3.2,4.5,3.1,7.3
		c0.1,1.8-0.5,3.7-1.6,5.2c-1,1.3-2.5,2-4.1,2c-1,0-2-0.3-2.8-1c-0.7-0.6-1.1-1.5-1.1-2.4c0-0.8,0.3-1.5,0.9-2.1
		c0.5-0.6,1.2-0.9,2-0.9c0.3,0,0.6,0.1,0.9,0.2c0.3-0.5,0.4-1,0.4-1.6c0-1.4-0.7-2.7-1.8-3.5c-1.3-1-2.9-1.5-4.5-1.4
		c-3.7,0-6.2,1.7-7.4,5c-0.9,3-1.3,6.2-1.1,9.4v4.8c0,3.2,0,5,0.1,5.4c0.2,2.7,1,4.1,2.2,4.1c0.7,0,1.3-0.1,1.9-0.2
		c0.4-0.1,0.9-0.2,1.3-0.2c1.1-0.2,2.1,0.6,2.3,1.7c0,0.2,0,0.4,0,0.6c0,1.7-1,2.5-2.9,2.5h-0.3c-0.7,0-1.8-0.1-3.2-0.2
		c-1.1-0.1-2.1-0.2-3.2-0.3c-1.9,0-3.4,0-4.5,0.2l-4,0.4c-2,0-2.9-0.8-2.9-2.5c0-1.5,0.9-2.2,2.7-2.2c0.4,0,0.7,0,1.1,0.1l1.1,0.2
		c0.3,0.1,0.7,0.1,1,0.2c1.2,0,1.9-1.1,2-3.3v-3.7l-0.2-16.3c-0.1-2.8-0.9-4.2-2.1-4.2c-0.5,0-1.1,0.1-1.6,0.2
		c-0.5,0.1-1,0.2-1.6,0.2c-1.1,0.2-2.2-0.6-2.4-1.7c0-0.2,0-0.4,0-0.6c0-1.7,1-2.5,3.1-2.5c0.7,0,1.4,0.1,2.1,0.2
		c0.7,0.1,1.4,0.2,2.1,0.2c0.6,0,1.2-0.1,1.8-0.2c0.4-0.1,0.9-0.2,1.4-0.2C307.6,13.2,308.2,13.9,308.2,15.3z"/>
	<path class="st0" d="M393.3,28.1c0.1,1.1,0,2.3-0.3,3.3c-0.2,0.4-0.9,0.6-2.1,0.6h-22.7c-0.4,0-0.8,0-1.2,0.2
		c-0.2,0.2-0.3,0.5-0.3,0.8c-0.1,3.3,1,6.5,3.2,9c2,2.3,4.9,3.7,8,3.6c2,0,4-0.6,5.7-1.7c1.6-1,2.8-2.6,3.4-4.4l0.6-2.1
		c0.2-1.1,1.3-1.8,2.4-1.7c1.8,0,2.6,0.9,2.6,2.7c0,3.1-1.6,5.9-4.7,8.3c-3,2.4-6.8,3.7-10.7,3.6c-5,0-9-1.7-11.9-5.1
		c-2.9-3.4-4.4-7.9-4.4-13.7c0-5.8,1.6-10.6,4.7-14.2c3-3.6,7.6-5.6,12.3-5.5c4.2-0.1,8.2,1.5,11,4.5
		C391.9,19.7,393.4,23.8,393.3,28.1z M367.4,26.2c0,0.7,0.5,1,1.6,1h17c1,0,1.5-0.3,1.5-1c0-2.5-1-4.9-2.9-6.6
		c-1.8-1.8-4.2-2.8-6.7-2.8c-2.7,0-5.3,1.1-7.3,2.9C368.6,21.3,367.4,23.6,367.4,26.2z"/>
</g>
</svg>
